<?xml version="1.0" encoding="iso-8859-1"?>
<!-- Generator: Adobe Illustrator 19.0.0, SVG Export Plug-In . SVG Version: 6.00 Build 0)  -->
<svg version="1.1" id="Capa_1" xmlns="http://www.w3.org/2000/svg" xmlns:xlink="http://www.w3.org/1999/xlink" x="0px" y="0px"
	 viewBox="0 0 512 512" style="enable-background:new 0 0 512 512;" xml:space="preserve">
<rect x="148.873" y="128.122" style="fill:#FFC473;" width="260.093" height="253.026"/>
<g>
	<rect x="148.873" y="186.096" style="fill:#AEADB3;" width="260.093" height="29.987"/>
	<rect x="202.219" y="239.642" style="fill:#AEADB3;" width="40.959" height="29.987"/>
	<rect x="202.219" y="285.202" style="fill:#AEADB3;" width="40.959" height="29.987"/>
</g>
<rect x="294.498" y="128.122" style="fill:#FFAA20;" width="114.469" height="253.026"/>
<rect x="294.498" y="186.096" style="fill:#8B8992;" width="114.469" height="29.987"/>
<path style="fill:#AEADB3;" d="M247.823,466.4c0,25.149-20.461,45.6-45.61,45.6c-25.139,0-45.6-20.451-45.6-45.6
	s20.461-45.6,45.6-45.6C227.362,420.801,247.823,441.252,247.823,466.4z"/>
<path style="fill:#8B8992;" d="M247.823,466.4c0,25.149-20.461,45.6-45.61,45.6v-91.199
	C227.362,420.801,247.823,441.252,247.823,466.4z"/>
<path style="fill:#AEADB3;" d="M433.048,466.4c0,25.149-20.461,45.6-45.61,45.6c-25.139,0-45.6-20.451-45.6-45.6
	s20.461-45.6,45.6-45.6C412.588,420.801,433.048,441.252,433.048,466.4z"/>
<g>
	<path style="fill:#8B8992;" d="M433.048,466.4c0,25.149-20.461,45.6-45.61,45.6v-91.199
		C412.588,420.801,433.048,441.252,433.048,466.4z"/>
	<rect x="148.873" y="14.993" style="fill:#8B8992;" width="29.987" height="351.162"/>
</g>
<g>
	<rect x="45.35" style="fill:#6CD7A7;" width="133.52" height="63.002"/>
	<rect x="122.345" y="351.162" style="fill:#6CD7A7;" width="344.305" height="99.625"/>
</g>
<rect x="294.498" y="351.162" style="fill:#00C379;" width="172.153" height="99.625"/>
<g>
</g>
<g>
</g>
<g>
</g>
<g>
</g>
<g>
</g>
<g>
</g>
<g>
</g>
<g>
</g>
<g>
</g>
<g>
</g>
<g>
</g>
<g>
</g>
<g>
</g>
<g>
</g>
<g>
</g>
</svg>
